HIERARCHY
ROOT hip
{
	OFFSET 0.00000 0.00000 0.00000
	CHANNELS 6 Xposition Yposition Zposition Zrotation Yrotation Xrotation 
	JOINT lhipjoint
	{
		OFFSET 0 0 0
		CHANNELS 3 Zrotation Yrotation Xrotation
		JOINT lfemur
		{
			OFFSET 1.57369 -1.71772 0.78318
			CHANNELS 3 Zrotation Yrotation Xrotation
			JOINT ltibia
			{
				OFFSET 2.43837 -6.69936 0.00000
				CHANNELS 3 Zrotation Yrotation Xrotation
				JOINT lfoot
				{
					OFFSET 2.44611 -6.72017 0.00000
					CHANNELS 3 Zrotation Yrotation Xrotation
					JOINT ltoes
					{
						OFFSET 0.23215 -0.63782 2.27431
						CHANNELS 3 Zrotation Yrotation Xrotation
						End Site
						{
							OFFSET 0.00000 -0.00000 1.18367
						}
					}
				}
			}
		}
	}
	JOINT rhipjoint
	{
		OFFSET 0 0 0
		CHANNELS 3 Zrotation Yrotation Xrotation
		JOINT rfemur
		{
			OFFSET -1.86522 -1.71771 0.78318
			CHANNELS 3 Zrotation Yrotation Xrotation
			JOINT rtibia
			{
				OFFSET -2.40267 -6.60130 0.00000
				CHANNELS 3 Zrotation Yrotation Xrotation
				JOINT rfoot
				{
					OFFSET -2.37935 -6.53502 0.00000
					CHANNELS 3 Zrotation Yrotation Xrotation
					JOINT rtoes
					{
						OFFSET -0.27597 -0.75823 2.47571
						CHANNELS 3 Zrotation Yrotation Xrotation
						End Site
						{
							OFFSET -0.00000 -0.00000 1.29303
						}
					}
				}
			}
		}
	}
	JOINT lowerback
	{
		OFFSET 0 0 0
		CHANNELS 3 Zrotation Yrotation Xrotation
		JOINT upperback
		{
			OFFSET -0.02101 1.92979 -0.01947
			CHANNELS 3 Zrotation Yrotation Xrotation
			JOINT thorax
			{
				OFFSET 0.01475 1.93352 -0.01119
				CHANNELS 3 Zrotation Yrotation Xrotation
				JOINT lowerneck
				{
					OFFSET 0 0 0
					CHANNELS 3 Zrotation Yrotation Xrotation
					JOINT upperneck
					{
						OFFSET 0.00502 1.65705 0.17258
						CHANNELS 3 Zrotation Yrotation Xrotation
						JOINT head
						{
							OFFSET 0.02905 1.66015 -0.26908
							CHANNELS 3 Zrotation Yrotation Xrotation
							End Site
							{
								OFFSET 0.00808 1.68998 -0.11043
							}
						}
					}
				}
				JOINT lclavicle
				{
					OFFSET 0 0 0
					CHANNELS 3 Zrotation Yrotation Xrotation
					JOINT lhumerus
					{
						OFFSET 3.43622 1.20746 -0.28777
						CHANNELS 3 Zrotation Yrotation Xrotation
						JOINT lradius
						{
							OFFSET 5.40197 -0.00000 -0.00000
							CHANNELS 3 Zrotation Yrotation Xrotation
							JOINT lwrist
							{
								OFFSET 3.00736 -0.00000 -0.00000
								CHANNELS 3 Zrotation Yrotation Xrotation
								JOINT lhand
								{
									OFFSET 0 0 0
									CHANNELS 3 Zrotation Yrotation Xrotation
									JOINT lfingers
									{
										OFFSET 0.77573 -0.00000 -0.00000
										CHANNELS 3 Zrotation Yrotation Xrotation
										End Site
										{
											OFFSET 0.62542 -0.00000 -0.00000
										}
									}
								}
								JOINT lthumb
								{
									OFFSET 0 0 0
									CHANNELS 3 Zrotation Yrotation Xrotation
									End Site
									{
										OFFSET 0.63496 -0.00000 0.63496
									}
								}
							}
						}
					}
				}
				JOINT rclavicle
				{
					OFFSET 0 0 0
					CHANNELS 3 Zrotation Yrotation Xrotation
					JOINT rhumerus
					{
						OFFSET -3.23184 1.05007 -0.30054
						CHANNELS 3 Zrotation Yrotation Xrotation
						JOINT rradius
						{
							OFFSET -5.23149 -0.00000 -0.00000
							CHANNELS 3 Zrotation Yrotation Xrotation
							JOINT rwrist
							{
								OFFSET -3.03370 -0.00000 -0.00000
								CHANNELS 3 Zrotation Yrotation Xrotation
								JOINT rhand
								{
									OFFSET 0 0 0
									CHANNELS 3 Zrotation Yrotation Xrotation
									JOINT rfingers
									{
										OFFSET -0.77918 -0.00000 -0.00000
										CHANNELS 3 Zrotation Yrotation Xrotation
										End Site
										{
											OFFSET -0.62820 -0.00000 -0.00000
										}
									}
								}
								JOINT rthumb
								{
									OFFSET 0 0 0
									CHANNELS 3 Zrotation Yrotation Xrotation
									End Site
									{
										OFFSET -0.63779 -0.00000 0.63779
									}
								}
							}
						}
					}
				}
			}
		}
	}
}
MOTION
Frames: 15
Frame Time: 0.033333
4.4633 16.5346 -2.5924 49.0415 -85.3391 -45.2810 0.0000 -0.0000 0.0000 -29.6614 -13.7840 -5.9654 1.1140 6.7053 18.8451 0.4238 -2.1171 -11.7474 0.0191 -0.8928 -2.4540 0.0000 -0.0000 0.0000 16.4895 2.8410 -26.2565 -10.8379 -17.8549 62.2542 -0.4368 -6.7012 -16.7151 -0.6377 5.1093 -14.2204 -3.9845 -0.1418 2.5078 -0.5056 -0.2910 1.5814 1.7209 -0.1805 0.2344 -0.7557 -0.4197 -18.3115 3.3469 -1.3005 20.3833 1.1028 -0.3300 9.4940 -0.0000 -0.0000 0.0000 -90.3957 -5.4764 24.3015 9.0450 -15.2321 -1.2119 -0.0000 -0.0000 20.0918 26.0184 1.8733 0.9142 -7.1250 0.0000 -0.0000 -0.4525 32.0639 0.1433 -0.0000 -0.0000 0.0000 84.8983 -1.2906 23.0412 -11.8392 19.5631 -2.0481 0.0000 0.0000 27.4278 -26.0436 2.0741 -1.0132 7.1250 -0.0000 -0.0000 0.4162 -27.6715 0.1753
4.4847 16.5110 -2.5873 48.2029 -85.3314 -44.4220 0.0000 -0.0000 0.0000 -29.7119 -13.8705 -5.9644 1.1981 6.9452 19.5530 0.4687 -2.3216 -12.3403 0.0209 -0.9331 -2.5646 0.0000 -0.0000 0.0000 16.3962 3.6499 -26.7596 -10.4282 -17.6437 60.9103 -0.5256 -6.1096 -17.2823 -0.6044 4.9765 -13.8414 -4.0199 -0.1935 2.5262 -0.4562 -0.3612 1.5629 1.7931 -0.2151 0.2099 -0.7930 -0.4233 -18.2944 3.3629 -1.3013 20.4222 1.1147 -0.3318 9.5048 0.0000 -0.0000 0.0000 -90.3981 -5.6642 24.4140 9.1639 -15.4212 -1.2433 -0.0000 -0.0000 19.8730 26.1083 1.7717 0.8681 -7.1250 0.0000 -0.0000 -0.3784 31.9524 0.1208 0.0000 -0.0000 0.0000 84.7912 -1.3257 23.4570 -11.9232 19.6894 -2.0764 0.0000 0.0000 27.0362 -25.9876 2.0266 -0.9876 7.1250 -0.0000 -0.0000 0.4591 -27.7254 0.1928
4.5014 16.4997 -2.5832 47.0643 -85.4179 -43.3333 0.0000 -0.0000 0.0000 -29.6800 -13.8538 -5.7831 1.2588 7.1125 20.0490 0.5123 -2.4786 -12.8960 0.0210 -0.9362 -2.5734 0.0000 -0.0000 0.0000 16.4673 4.3751 -27.2125 -9.9629 -17.3889 59.3644 -0.5930 -5.7380 -17.7639 -0.6950 5.3293 -14.8503 -3.9938 -0.2105 2.5973 -0.3905 -0.3864 1.5686 1.8468 -0.2271 0.1777 -0.7882 -0.4483 -18.3156 3.3743 -1.3419 20.4485 1.1126 -0.3488 9.5190 0.0000 0.0000 0.0000 -90.2842 -5.7155 25.2451 9.4264 -15.8374 -1.3141 -0.0000 -0.0000 19.0620 26.0177 1.9072 0.9307 -7.1250 0.0000 -0.0000 -0.4537 32.1017 0.1432 0.0000 0.0000 0.0000 84.7515 -1.3603 23.5196 -12.0032 19.8094 -2.1034 0.0000 0.0000 27.0761 -25.9404 2.0642 -1.0038 7.1250 -0.0000 -0.0000 0.4957 -27.6844 0.2086
4.5185 16.4808 -2.5799 46.2317 -85.4155 -42.5442 0.0000 -0.0000 0.0000 -29.7365 -13.8065 -5.5983 1.3161 7.2663 20.5068 0.5544 -2.6664 -13.4045 0.0227 -0.9722 -2.6724 0.0000 -0.0000 0.0000 16.4246 5.0403 -27.5582 -9.4670 -17.0990 57.6914 -0.6543 -5.5225 -18.2788 -0.7245 5.4389 -15.1647 -4.0572 -0.2508 2.6592 -0.3299 -0.4439 1.5830 1.9463 -0.2564 0.1626 -0.8068 -0.4371 -18.2648 3.4137 -1.3270 20.3725 1.1307 -0.3397 9.4831 0.0000 -0.0000 0.0000 -90.2931 -5.8683 25.4306 9.5700 -16.0641 -1.3535 -0.0000 -0.0000 18.8677 26.1985 1.8330 0.9017 -7.1250 0.0000 -0.0000 -0.3069 32.0223 0.0975 0.0000 -0.0000 0.0000 84.7029 -1.3302 23.5250 -12.0172 19.8305 -2.1081 0.0000 0.0000 27.1762 -25.9907 2.1116 -1.0291 7.1250 -0.0000 -0.0000 0.4574 -27.6308 0.1931
4.5346 16.4669 -2.5768 45.2963 -85.4435 -41.6294 0.0000 -0.0000 0.0000 -29.7594 -13.8405 -5.3014 1.3513 7.3590 20.7835 0.5896 -2.8069 -13.8181 0.0135 -0.7498 -2.0605 0.0000 -0.0000 0.0000 16.4316 5.7138 -27.8703 -8.9199 -16.7559 55.8126 -0.7075 -5.4731 -18.8091 -0.8179 5.7707 -16.1206 -4.0511 -0.2869 2.7321 -0.2930 -0.4953 1.5836 1.9826 -0.2816 0.1260 -0.8418 -0.4369 -18.2720 3.5147 -1.3391 20.3312 1.1697 -0.3366 9.4714 -0.0000 -0.0000 0.0000 -90.1588 -5.9026 26.2341 9.8312 -16.4750 -1.4267 -0.0000 -0.0000 18.0367 26.2038 1.7626 0.8672 -7.1250 0.0000 -0.0000 -0.3015 31.9439 0.0963 -0.0000 -0.0000 0.0000 84.7110 -1.3211 23.5878 -12.0527 19.8837 -2.1202 0.0000 0.0000 27.1298 -26.0902 2.1390 -1.0471 7.1250 -0.0000 -0.0000 0.3809 -27.5983 0.1611
4.5504 16.4574 -2.5751 43.8524 -85.5207 -40.2401 0.0000 -0.0000 0.0000 -29.7079 -13.7558 -4.9492 1.3720 7.4129 20.9444 0.6307 -2.8817 -14.2974 0.0148 -0.7844 -2.1557 0.0000 -0.0000 0.0000 16.4928 6.3983 -28.0303 -8.3216 -16.3508 53.7130 -0.7505 -5.4354 -19.2261 -0.8080 5.7365 -16.0218 -3.9864 -0.3215 2.8424 -0.2404 -0.5448 1.5847 2.0025 -0.3050 0.0684 -0.8212 -0.4147 -18.2431 3.5352 -1.3172 20.2845 1.1760 -0.3231 9.4493 0.0000 0.0000 0.0000 -90.0553 -5.9223 26.7720 10.0784 -16.8621 -1.4976 -0.0000 -0.0000 17.4299 26.3116 1.7730 0.8765 -7.1250 0.0000 -0.0000 -0.2149 31.9574 0.0686 0.0000 0.0000 0.0000 84.7316 -1.3118 23.6107 -12.0795 19.9237 -2.1293 0.0000 0.0000 27.0222 -26.1127 2.2007 -1.0783 7.1250 -0.0000 -0.0000 0.3643 -27.5291 0.1547
4.5628 16.4499 -2.5725 43.8756 -85.4834 -40.2764 0.0000 -0.0000 0.0000 -29.8392 -13.6327 -4.5421 1.3742 7.4184 20.9611 0.6615 -2.9420 -14.6458 0.0194 -0.8982 -2.4687 0.0000 -0.0000 0.0000 16.3591 7.0360 -28.1398 -7.6853 -15.8828 51.4210 -0.7772 -5.4850 -19.5291 -0.8465 5.8682 -16.4025 -4.0584 -0.3558 2.8900 -0.2499 -0.5950 1.5763 2.0348 -0.3298 0.0371 -0.7801 -0.4225 -18.2106 3.5470 -1.3395 20.2145 1.1696 -0.3296 9.4194 0.0000 -0.0000 0.0000 -89.9207 -5.9184 27.3604 10.2958 -17.2009 -1.5613 -0.0000 -0.0000 17.0490 26.4082 1.8315 0.9093 -7.1250 0.0000 -0.0000 -0.1381 32.0244 0.0438 0.0000 -0.0000 0.0000 84.7909 -1.3188 23.5790 -12.0961 19.9486 -2.1350 0.0000 0.0000 27.0146 -26.0791 2.0841 -1.0197 7.1250 -0.0000 -0.0000 0.3889 -27.6596 0.1639
4.5780 16.4412 -2.5733 44.0908 -85.3736 -40.4764 0.0000 -0.0000 0.0000 -30.0029 -13.4895 -4.1449 1.3636 7.3909 20.8788 0.6886 -3.0504 -14.9373 0.0175 -0.8529 -2.3443 0.0000 -0.0000 0.0000 16.1544 7.6187 -28.2093 -7.0072 -15.3379 48.9015 -0.7781 -5.5847 -19.6069 -0.8728 5.9563 -16.6576 -4.2260 -0.4128 2.9291 -0.2550 -0.6774 1.5847 2.1260 -0.3722 0.0315 -0.7923 -0.4064 -18.2276 3.5969 -1.3206 20.1281 1.1910 -0.3159 9.3923 0.0000 0.0000 0.0000 -89.8122 -5.9940 27.9328 10.5021 -17.5210 -1.6228 -0.0000 -0.0000 16.3169 26.5911 1.6393 0.8204 -7.1250 0.0000 -0.0000 0.0116 31.8129 -0.0037 0.0000 0.0000 0.0000 84.8519 -1.2615 23.5013 -12.0914 19.9415 -2.1334 0.0000 0.0000 26.9185 -26.2900 2.1891 -1.0811 7.1250 -0.0000 -0.0000 0.2278 -27.5384 0.0967
4.5902 16.4410 -2.5744 43.4414 -85.3927 -39.8271 0.0000 -0.0000 0.0000 -30.0132 -13.3413 -3.6396 1.3328 7.3103 20.6381 0.7134 -3.1080 -15.2054 0.0151 -0.7935 -2.1809 0.0000 -0.0000 0.0000 16.0936 8.3775 -28.0814 -6.3179 -14.7295 46.2447 -0.7542 -5.8819 -19.5758 -0.8343 5.8267 -16.2825 -4.2238 -0.4435 2.9599 -0.2440 -0.7197 1.5851 2.1376 -0.3931 0.0176 -0.7813 -0.4053 -18.1917 3.6418 -1.3295 20.0531 1.2029 -0.3149 9.3602 -0.0000 -0.0000 0.0000 -89.6794 -6.0182 28.4061 10.7179 -17.8546 -1.6884 -0.0000 -0.0000 15.9831 26.6277 1.7650 0.8847 -7.1250 0.0000 -0.0000 0.0395 31.9539 -0.0126 -0.0000 -0.0000 0.0000 84.9500 -1.2285 23.2831 -12.0660 19.9035 -2.1247 0.0000 0.0000 27.2676 -26.2688 2.0623 -1.0175 7.1250 -0.0000 -0.0000 0.2426 -27.6802 0.1021
4.6002 16.4374 -2.5766 42.9438 -85.4309 -39.2720 0.0000 -0.0000 0.0000 -29.9991 -13.1502 -3.1548 1.2886 7.1928 20.2879 0.7262 -3.1458 -15.3401 0.0143 -0.7717 -2.1210 0.0000 -0.0000 0.0000 16.0482 9.0358 -27.9687 -5.6193 -14.0489 43.4338 -0.6502 -6.5815 -19.0291 -0.9018 6.0520 -16.9354 -4.2090 -0.4734 2.8782 -0.2341 -0.7545 1.6084 2.1393 -0.4123 0.0896 -0.8104 -0.4104 -18.2473 3.7058 -1.3400 20.0014 1.2283 -0.3141 9.3533 0.0000 0.0000 0.0000 -89.5574 -6.1214 28.7610 10.8574 -18.0694 -1.7314 -0.0000 -0.0000 15.7422 26.8789 1.6164 0.8191 -7.1250 0.0000 -0.0000 0.2428 31.7917 -0.0785 0.0000 0.0000 0.0000 85.0432 -1.1560 23.2708 -12.0477 19.8761 -2.1185 0.0000 0.0000 27.0490 -26.3811 2.0650 -1.0239 7.1250 -0.0000 -0.0000 0.1561 -27.6749 0.0657
4.6093 16.4408 -2.5792 43.5075 -85.3610 -39.7518 0.0000 -0.0000 0.0000 -30.1141 -12.9125 -2.6406 1.2299 7.0333 19.8140 0.7340 -3.1860 -15.4200 0.0160 -0.8175 -2.2469 0.0000 -0.0000 0.0000 15.8008 9.7934 -27.7958 -4.9461 -13.3228 40.5892 -0.5452 -7.2347 -18.4311 -0.9080 6.0721 -16.9938 -4.3458 -0.5089 2.8249 -0.2519 -0.8027 1.5888 2.1983 -0.4371 0.1044 -0.8265 -0.3892 -18.2568 3.7566 -1.3156 19.9591 1.2514 -0.2982 9.3402 0.0000 0.0000 0.0000 -89.4332 -6.1846 29.2367 10.9980 -18.2853 -1.7753 -0.0000 -0.0000 15.2361 27.0437 1.4570 0.7436 -7.1250 0.0000 -0.0000 0.3763 31.6153 -0.1232 0.0000 0.0000 0.0000 85.1441 -1.1420 23.0829 -12.0202 19.8349 -2.1091 0.0000 0.0000 27.3560 -26.4207 1.9826 -0.9848 7.1250 -0.0000 -0.0000 0.1245 -27.7662 0.0522
4.6160 16.4453 -2.5814 44.5788 -85.3398 -40.6958 0.0000 -0.0000 0.0000 -30.2231 -12.6901 -2.0979 1.1598 6.8372 19.2339 0.7406 -3.2207 -15.4867 0.0154 -0.8013 -2.2024 0.0000 -0.0000 0.0000 15.5506 10.5399 -27.6169 -4.3008 -12.5503 37.7074 -0.4327 -7.8858 -17.7346 -0.9128 6.0877 -17.0392 -4.4585 -0.5065 2.7115 -0.2818 -0.7969 1.5529 2.2295 -0.4346 0.1320 -0.7870 -0.4010 -18.3103 3.7374 -1.3395 19.9788 1.2353 -0.3076 9.3572 0.0000 -0.0000 0.0000 -89.3398 -6.2516 29.5667 11.0936 -18.4316 -1.8054 -0.0000 -0.0000 14.9540 27.2031 1.4295 0.7346 -7.1250 0.0000 -0.0000 0.5042 31.5866 -0.1654 0.0000 -0.0000 0.0000 85.2438 -1.1495 22.9901 -11.9683 19.7571 -2.0916 0.0000 0.0000 27.3684 -26.5189 1.9933 -0.9944 7.1250 -0.0000 -0.0000 0.0490 -27.7522 0.0205
4.6236 16.4514 -2.5852 45.1365 -85.3329 -41.1303 0.0000 -0.0000 0.0000 -30.2823 -12.4922 -1.4569 1.0740 6.5876 18.4993 0.7441 -3.1521 -15.5342 0.0166 -0.8330 -2.2895 0.0000 -0.0000 0.0000 15.2883 11.4890 -27.3228 -3.7052 -11.7574 34.8789 -0.3083 -8.7292 -17.0679 -0.9064 6.0671 -16.9791 -4.5529 -0.5091 2.6384 -0.2842 -0.7992 1.4961 2.2794 -0.4348 0.1162 -0.7565 -0.3959 -18.2781 3.6986 -1.3316 19.9685 1.2177 -0.3065 9.3470 0.0000 -0.0000 0.0000 -89.2908 -6.2723 29.7112 11.1586 -18.5310 -1.8260 -0.0000 -0.0000 14.9331 27.3722 1.2802 0.6627 -7.1250 0.0000 -0.0000 0.6400 31.4209 -0.2125 0.0000 -0.0000 0.0000 85.3329 -1.2177 22.8246 -11.9598 19.7443 -2.0887 0.0000 0.0000 27.4229 -26.3660 2.0821 -1.0317 7.1250 -0.0000 -0.0000 0.1679 -27.6562 0.0708
4.6285 16.4552 -2.5887 45.6604 -85.3159 -41.5315 0.0000 -0.0000 0.0000 -30.3396 -12.2155 -0.8269 0.9867 6.3223 17.7226 0.7383 -3.2030 -15.4638 0.0160 -0.8174 -2.2465 0.0000 -0.0000 0.0000 15.0007 12.4192 -26.9830 -3.1591 -10.9483 32.1058 -0.1541 -9.6791 -16.1224 -0.9241 6.1242 -17.1453 -4.5988 -0.5039 2.5129 -0.3125 -0.7870 1.4683 2.2745 -0.4291 0.1572 -0.7437 -0.3816 -18.2770 3.7198 -1.3185 19.9307 1.2244 -0.2971 9.3335 -0.0000 -0.0000 0.0000 -89.2118 -6.3466 29.9202 11.2084 -18.6069 -1.8419 -0.0000 -0.0000 14.7563 27.4502 1.2860 0.6679 -7.1250 0.0000 -0.0000 0.7024 31.4284 -0.2331 -0.0000 -0.0000 0.0000 85.4483 -1.2598 22.6447 -11.9221 19.6877 -2.0760 0.0000 0.0000 27.6977 -26.4570 2.1237 -1.0565 7.1250 -0.0000 -0.0000 0.0983 -27.6079 0.0416
4.6331 16.4621 -2.5921 45.8383 -85.2960 -41.5670 0.0000 -0.0000 0.0000 -30.3699 -11.9529 -0.1859 0.9022 6.0533 16.9391 0.7355 -3.2022 -15.4333 0.0168 -0.8370 -2.3003 0.0000 -0.0000 0.0000 14.6741 13.5006 -26.6016 -2.6659 -10.1336 29.4104 0.0255 -10.8563 -15.0688 -0.9040 6.0592 -16.9563 -4.6070 -0.5133 2.3662 -0.3339 -0.7919 1.4339 2.2556 -0.4316 0.2042 -0.7689 -0.3670 -18.2871 3.7506 -1.2973 19.9181 1.2420 -0.2855 9.3307 -0.0000 -0.0000 0.0000 -89.1673 -6.4200 29.9998 11.2546 -18.6774 -1.8566 -0.0000 -0.0000 14.6675 27.3960 1.3181 0.6830 -7.1250 0.0000 -0.0000 0.6590 31.4639 -0.2181 -0.0000 -0.0000 0.0000 85.5496 -1.3135 22.6068 -11.9102 19.6699 -2.0720 0.0000 0.0000 27.6583 -26.3696 2.1384 -1.0597 7.1250 -0.0000 -0.0000 0.1659 -27.5933 0.0702
